# xmcd
#
# Track frame offsets: 
#        150
#        20031
#        37729
#        52147
#        67481
#        80592
#        105086
#        121029
#        146098
#        158972
#        171833
#        194359
#        210331
#        229945
#
# Disc length: 3303 seconds
#
# Revision: 4
# Processed by: cddbd v1.5.2PL0 Copyright (c) Steve Scherf et al.
# Submitted via: ExactAudioCopy v1.0b3
#
DISCID=c10ce50e
DTITLE=Boyz II Men - Motown. Hitsville USA
DYEAR=2007
DGENRE=Soul
TTITLE0=Just My Imagination (Running Away With Me)
TTITLE1=It's The Same Old Song-Reach Out I'll Be There
TTITLE2=Mercy Mercy Me (The Ecology)
TTITLE3=Tracks Of My Tears
TTITLE4=Money (That's What I Want)
TTITLE5=Easy
TTITLE6=I Was Made To Love Her
TTITLE7=All This Love
TTITLE8=Ribbon In The Sky - A Capella
TTITLE9=Ain't Nothing Like The Real Thing (feat. Patti LaBelle)
TTITLE10=There'll Never Be
TTITLE11=Got To Be There
TTITLE12=War
TTITLE13=End Of The Road (feat. Brian McKnight)
EXTD=
EXTT0=
EXTT1=
EXTT2=
EXTT3=
EXTT4=
EXTT5=
EXTT6=
EXTT7=
EXTT8=
EXTT9=
EXTT10=
EXTT11=
EXTT12=
EXTT13=
PLAYORDER=
